<?xml version="1.0" standalone="no"?>
<!DOCTYPE svg PUBLIC "-//W3C//DTD SVG 20010904//EN"
 "http://www.w3.org/TR/2001/REC-SVG-20010904/DTD/svg10.dtd">
<svg version="1.0" xmlns="http://www.w3.org/2000/svg"
 width="162.000000pt" height="145.000000pt" viewBox="0 0 162.000000 145.000000"
 preserveAspectRatio="xMidYMid meet">

<g transform="translate(0.000000,145.000000) scale(0.100000,-0.100000)"
fill="#000000" stroke="none">
<path d="M917 1137 c-10 -27 -9 -75 2 -59 6 10 12 4 24 -20 9 -18 17 -27 17
-20 0 7 -5 23 -12 35 -6 12 -14 36 -18 52 -5 25 -7 27 -13 12z"/>
<path d="M895 1050 c-3 -5 -1 -10 4 -10 6 0 11 5 11 10 0 6 -2 10 -4 10 -3 0
-8 -4 -11 -10z"/>
<path d="M917 1034 c-15 -51 -17 -83 -8 -89 6 -3 11 -18 12 -33 1 -23 2 -24 7
-7 4 11 14 30 23 42 14 21 19 21 80 13 226 -33 201 -70 -64 -91 -72 -6 -161
-8 -196 -5 -67 7 -131 29 -131 44 0 18 105 54 175 61 65 6 70 8 73 31 3 22 2
23 -10 9 -9 -11 -36 -19 -83 -23 -46 -4 -88 -15 -125 -33 l-55 -28 2 -180 c0
-99 4 -249 8 -332 l7 -153 62 -30 c90 -44 179 -64 256 -57 77 6 162 36 217 76
l40 29 7 317 c8 354 10 342 -62 363 -36 11 -204 34 -207 29 -1 -1 -7 -11 -13
-22 -10 -18 -11 -16 -12 17 0 20 6 38 13 41 9 3 9 7 0 17 -8 9 -12 8 -16 -6z
m273 -433 c0 -154 -4 -291 -9 -304 -13 -33 -117 -84 -196 -96 -96 -14 -232 14
-309 64 -22 15 -23 20 -34 306 -7 161 -10 294 -8 296 2 2 28 -3 57 -11 80 -24
359 -15 457 14 15 5 30 9 35 9 4 1 7 -125 7 -278z"/>
</g>
</svg>
