<?xml version="1.0" standalone="no"?>
<!DOCTYPE svg PUBLIC "-//W3C//DTD SVG 20010904//EN"
 "http://www.w3.org/TR/2001/REC-SVG-20010904/DTD/svg10.dtd">
<svg version="1.0" xmlns="http://www.w3.org/2000/svg"
 width="130.000000pt" height="135.000000pt" viewBox="0 0 130.000000 135.000000"
 preserveAspectRatio="xMidYMid meet">

<g transform="translate(0.000000,135.000000) scale(0.100000,-0.100000)"
fill="#000000" stroke="none">
<path d="M579 1083 c-18 -16 -44 -38 -58 -51 -44 -41 -117 -83 -197 -116 -87
-35 -120 -72 -108 -120 8 -33 31 -46 114 -63 36 -7 112 -36 170 -64 58 -29
112 -55 121 -59 11 -6 38 8 87 45 39 29 88 60 109 69 21 10 47 21 58 26 11 5
40 14 65 21 25 6 61 19 80 29 19 9 40 16 46 13 13 -4 2 114 -15 144 -12 24
-49 53 -66 53 -5 0 5 -10 23 -21 24 -16 32 -28 32 -49 0 -16 -4 -32 -10 -35
-5 -3 -10 -11 -10 -18 0 -8 3 -8 12 1 17 17 29 15 22 -3 -4 -8 -10 -15 -15
-15 -5 0 -32 -16 -60 -35 -28 -19 -46 -35 -39 -35 6 0 32 14 56 32 24 17 46
29 49 26 13 -12 -9 -36 -51 -57 -35 -16 -49 -19 -60 -10 -16 13 -76 -9 -67
-25 4 -5 1 -6 -6 -2 -21 13 -55 -2 -97 -41 -116 -111 -137 -115 -242 -54 -37
21 -92 46 -122 55 -171 51 -165 48 -168 87 -4 46 21 68 125 106 55 21 99 48
170 106 81 64 102 77 133 77 20 0 40 -4 46 -8 16 -15 134 -54 147 -49 7 2 -7
9 -30 16 -23 6 -61 20 -85 31 -63 29 -119 26 -159 -7z"/>
<path d="M915 1025 c28 -7 51 -12 53 -10 6 5 -61 25 -82 24 -12 0 2 -6 29 -14z"/>
<path d="M972 920 c0 -14 2 -19 5 -12 2 6 2 18 0 25 -3 6 -5 1 -5 -13z"/>
<path d="M933 841 c-11 -10 -67 -32 -123 -50 -57 -18 -118 -42 -137 -54 -32
-21 -53 -60 -39 -74 3 -4 6 3 6 14 0 11 8 27 18 35 19 17 143 68 164 68 8 0
18 4 24 8 5 5 27 14 50 20 22 7 49 21 59 32 22 25 8 26 -22 1z"/>
<path d="M1080 785 c0 -8 -9 -15 -20 -15 -14 0 -20 -7 -20 -22 1 -20 2 -21 11
-6 5 10 16 15 24 12 11 -5 15 1 15 20 0 14 -2 26 -5 26 -3 0 -5 -7 -5 -15z"/>
<path d="M337 779 c7 -7 15 -10 18 -7 3 3 -2 9 -12 12 -14 6 -15 5 -6 -5z"/>
<path d="M378 763 c7 -3 16 -2 19 1 4 3 -2 6 -13 5 -11 0 -14 -3 -6 -6z"/>
<path d="M984 671 c-27 -21 -67 -44 -88 -51 -56 -18 -159 -70 -152 -77 3 -3
11 -1 18 5 8 6 53 27 102 46 48 20 110 52 136 71 52 38 60 41 60 23 -1 -21
-82 -76 -157 -107 -39 -16 -96 -45 -127 -65 -31 -20 -56 -33 -56 -29 0 4 -5 2
-12 -5 -13 -13 -70 -16 -82 -5 -4 5 -11 8 -14 9 -11 1 -46 15 -65 25 -9 5 -38
12 -62 16 -32 4 -45 10 -45 22 0 13 -2 13 -9 2 -7 -11 -15 -11 -45 -1 -20 6
-36 16 -36 21 0 6 -4 7 -10 4 -5 -3 -20 0 -32 7 -29 16 -72 22 -64 9 4 -5 21
-12 39 -16 17 -4 42 -14 55 -22 13 -8 62 -23 110 -33 48 -11 105 -28 127 -38
22 -11 59 -23 83 -27 38 -6 47 -3 91 29 75 53 149 88 173 80 15 -4 18 -3 13 6
-5 9 -4 11 4 6 6 -4 18 0 27 8 8 9 21 16 29 16 7 0 15 6 18 14 10 25 57 51 66
37 4 -6 7 4 7 24 -1 31 -4 35 -27 35 -16 0 -47 -16 -75 -39z"/>
<path d="M908 693 c7 -3 16 -2 19 1 4 3 -2 6 -13 5 -11 0 -14 -3 -6 -6z"/>
<path d="M205 680 c-3 -5 3 -10 14 -10 10 0 21 -6 24 -12 2 -7 8 -10 12 -5 5
4 0 14 -11 22 -23 17 -31 18 -39 5z"/>
<path d="M865 680 c3 -5 -2 -10 -11 -10 -10 0 -15 -2 -12 -5 9 -9 58 6 52 16
-3 5 -12 9 -20 9 -8 0 -12 -4 -9 -10z"/>
<path d="M290 650 c-13 -8 -13 -10 2 -10 9 0 20 5 23 10 8 13 -5 13 -25 0z"/>
<path d="M180 634 c0 -9 32 -33 44 -34 5 0 1 9 -9 20 -18 20 -35 26 -35 14z"/>
<path d="M331 604 c0 -11 3 -14 6 -6 3 7 2 16 -1 19 -3 4 -6 -2 -5 -13z"/>
<path d="M387 605 c6 -17 37 -25 96 -25 26 0 47 -4 47 -9 0 -4 12 -6 28 -3
l27 6 -25 7 c-14 4 -43 8 -65 8 -22 1 -56 8 -77 15 -28 10 -35 10 -31 1z"/>
<path d="M741 590 c-13 -11 -19 -20 -14 -20 6 0 18 9 28 20 23 25 17 25 -14 0z"/>
<path d="M1085 580 c-3 -5 -22 -10 -42 -10 -39 0 -106 -34 -213 -108 -78 -54
-87 -62 -74 -62 6 0 24 11 40 25 53 46 219 135 251 135 37 0 63 9 63 21 0 12
-17 11 -25 -1z"/>
<path d="M590 566 c0 -2 11 -6 25 -8 14 -3 25 -1 25 3 0 5 -11 9 -25 9 -14 0
-25 -2 -25 -4z"/>
<path d="M685 560 c-3 -6 1 -7 9 -4 18 7 21 14 7 14 -6 0 -13 -4 -16 -10z"/>
<path d="M1114 533 c-4 -10 -7 -21 -6 -25 3 -13 -39 -30 -51 -20 -8 5 -25 2
-47 -10 -35 -18 -35 -18 -5 -12 29 6 29 6 -11 -24 -52 -38 -104 -65 -104 -54
0 5 18 21 40 36 22 14 40 29 40 31 0 3 -12 -3 -27 -12 -102 -66 -121 -81 -112
-90 11 -11 91 27 163 76 45 31 122 58 133 47 9 -9 -14 -24 -47 -32 -44 -9 -84
-33 -150 -89 -86 -73 -158 -108 -250 -121 l-75 -11 55 -1 c96 -2 190 43 320
154 32 27 70 49 106 59 53 15 56 17 49 43 -4 15 -7 37 -7 50 0 27 -3 28 -14 5z"/>
<path d="M318 504 c-3 -3 -20 -6 -37 -6 -17 -1 -31 -5 -31 -11 0 -6 15 -7 38
-3 20 3 43 6 50 6 7 0 10 5 7 10 -7 11 -19 13 -27 4z"/>
<path d="M365 480 c-8 -13 15 -13 35 0 12 8 11 10 -7 10 -12 0 -25 -4 -28 -10z"/>
<path d="M425 470 c-13 -6 -15 -9 -5 -9 8 0 22 4 30 9 18 12 2 12 -25 0z"/>
<path d="M935 470 c-3 -6 1 -7 9 -4 18 7 21 14 7 14 -6 0 -13 -4 -16 -10z"/>
<path d="M455 450 c4 -6 11 -8 16 -5 14 9 11 15 -7 15 -8 0 -12 -5 -9 -10z"/>
<path d="M282 441 c-11 -6 -10 -10 4 -15 20 -8 32 0 18 14 -5 5 -15 5 -22 1z"/>
<path d="M172 413 c-2 -24 5 -37 29 -57 17 -14 40 -25 52 -25 21 1 21 2 2 6
-40 10 -74 43 -78 76 l-4 32 -1 -32z"/>
<path d="M505 426 c11 -8 27 -16 35 -16 20 0 1 16 -30 25 -24 7 -24 7 -5 -9z"/>
<path d="M350 412 c0 -5 7 -13 16 -16 10 -4 14 -1 12 6 -5 15 -28 23 -28 10z"/>
<path d="M682 399 c2 -7 -8 -16 -22 -20 -19 -7 -14 -8 19 -5 24 3 49 10 55 16
8 10 7 11 -4 8 -8 -3 -23 -1 -33 4 -12 6 -16 5 -15 -3z"/>
<path d="M430 390 c0 -11 48 -25 57 -16 4 3 -3 6 -15 6 -12 0 -22 5 -22 10 0
6 -4 10 -10 10 -5 0 -10 -4 -10 -10z"/>
<path d="M597 389 c7 -7 15 -10 18 -7 3 3 -2 9 -12 12 -14 6 -15 5 -6 -5z"/>
<path d="M508 363 c7 -3 16 -2 19 1 4 3 -2 6 -13 5 -11 0 -14 -3 -6 -6z"/>
<path d="M560 340 c14 -11 29 -20 34 -20 5 0 -3 9 -17 20 -14 11 -29 20 -34
20 -4 0 3 -9 17 -20z"/>
<path d="M345 314 c33 -8 74 -21 92 -29 17 -8 35 -15 41 -15 5 0 29 -9 53 -20
50 -22 88 -27 47 -6 -50 26 -238 86 -266 85 -17 -1 -5 -7 33 -15z"/>
<path d="M669 278 c3 -24 6 -27 9 -13 2 11 11 26 20 33 14 10 13 12 -9 12 -23
0 -25 -3 -20 -32z"/>
</g>
</svg>
