<?xml version="1.0" standalone="no"?>
<!DOCTYPE svg PUBLIC "-//W3C//DTD SVG 20010904//EN"
 "http://www.w3.org/TR/2001/REC-SVG-20010904/DTD/svg10.dtd">
<svg version="1.0" xmlns="http://www.w3.org/2000/svg"
 width="162.000000pt" height="145.000000pt" viewBox="0 0 162.000000 145.000000"
 preserveAspectRatio="xMidYMid meet">

<g transform="translate(0.000000,145.000000) scale(0.100000,-0.100000)"
fill="#000000" stroke="none">
<path d="M558 969 c-77 -10 -163 -41 -195 -71 -26 -24 -30 -76 -13 -139 8 -30
19 -41 55 -58 24 -11 62 -23 84 -27 48 -8 62 -41 35 -81 -24 -37 -11 -241 17
-278 44 -55 272 -94 447 -76 133 14 242 38 272 60 32 23 49 98 32 145 -16 43
-15 87 3 110 21 28 20 149 -1 170 -26 27 -51 36 -112 44 l-57 7 -5 54 c-7 68
-33 92 -126 114 -151 36 -291 45 -436 26z m362 -25 c112 -19 142 -30 169 -58
19 -20 21 -28 11 -46 -17 -32 -92 -61 -210 -81 -129 -23 -179 -23 -300 -4
-116 19 -194 43 -220 67 -26 25 -25 34 8 67 27 28 65 39 227 70 60 12 198 5
315 -15z m183 -168 c-9 -46 -43 -65 -153 -87 -196 -37 -473 -21 -560 34 -18
11 -45 66 -36 74 2 2 39 -8 82 -22 108 -36 219 -49 349 -42 113 6 250 35 287
61 27 19 37 13 31 -18z m112 -27 c46 -13 85 -45 85 -70 0 -94 -382 -146 -620
-84 -51 13 -130 49 -130 58 0 1 69 2 153 2 92 1 191 7 252 17 93 15 102 19
130 51 33 39 62 45 130 26z m85 -143 c0 -31 -40 -70 -88 -84 -21 -7 -99 -19
-173 -28 -110 -12 -152 -13 -233 -4 -173 20 -256 56 -256 112 0 22 3 22 66 -1
72 -28 214 -51 310 -51 103 0 285 33 327 58 42 27 47 26 47 -2z m-655 -101
c33 -9 89 -22 125 -27 81 -13 294 -3 375 17 78 19 95 19 67 0 -31 -22 -169
-47 -288 -52 -78 -4 -127 0 -209 17 -152 30 -208 61 -192 105 6 15 11 13 35
-13 17 -19 49 -36 87 -47z m-65 -26 c173 -66 499 -64 638 3 49 23 60 19 46
-19 -23 -66 -138 -95 -379 -97 -139 0 -171 3 -243 23 -85 24 -122 52 -122 92
0 23 -6 23 60 -2z m674 -79 c-34 -34 -166 -63 -309 -68 -143 -5 -166 2 -40 12
162 14 295 38 328 61 37 26 49 23 21 -5z m-505 -70 c160 -24 401 -1 495 46 37
18 36 19 36 -14 0 -72 -128 -106 -395 -106 -217 0 -337 35 -343 101 l-3 31 64
-23 c35 -13 101 -29 146 -35z"/>
</g>
</svg>
