<?xml version="1.0" standalone="no"?>
<!DOCTYPE svg PUBLIC "-//W3C//DTD SVG 20010904//EN"
 "http://www.w3.org/TR/2001/REC-SVG-20010904/DTD/svg10.dtd">
<svg version="1.0" xmlns="http://www.w3.org/2000/svg"
 width="142.000000pt" height="145.000000pt" viewBox="0 0 142.000000 145.000000"
 preserveAspectRatio="xMidYMid meet">

<g transform="translate(0.000000,145.000000) scale(0.100000,-0.100000)"
fill="#000000" stroke="none">
<path d="M715 1053 c-9 -9 -34 -44 -56 -79 -47 -74 -103 -127 -150 -142 -19
-6 -69 -16 -111 -21 -79 -11 -144 -35 -152 -57 -8 -21 32 -62 103 -104 114
-68 114 -69 122 -225 9 -200 25 -208 173 -78 55 48 94 89 88 91 -7 2 -55 -35
-107 -82 -52 -47 -99 -86 -104 -86 -23 0 -34 69 -40 262 -1 39 -52 92 -132
139 -38 22 -73 48 -79 59 -15 28 23 44 135 60 50 7 104 18 121 25 49 20 99 70
149 150 47 76 72 99 98 90 7 -3 38 -57 67 -120 63 -137 83 -160 148 -169 64
-8 168 -44 183 -62 15 -18 -15 -52 -103 -116 -32 -23 -58 -47 -58 -52 0 -5 12
-34 27 -64 30 -62 42 -154 23 -177 -7 -8 -23 -15 -36 -15 -21 0 -44 14 -199
124 -30 22 -57 37 -60 35 -5 -6 128 -111 185 -146 41 -26 102 -30 120 -8 20
25 13 110 -16 182 l-27 67 33 26 c58 43 125 102 133 116 22 38 -38 73 -179
102 -91 20 -97 26 -159 168 -21 49 -45 97 -53 107 -19 22 -65 22 -87 0z"/>
<path d="M655 730 c-8 -14 3 -30 21 -30 8 0 14 9 14 20 0 21 -24 28 -35 10z"/>
<path d="M804 707 c-6 -17 2 -37 16 -37 15 0 19 29 5 40 -12 10 -16 9 -21 -3z"/>
<path d="M675 592 c6 -6 24 -14 40 -18 21 -4 27 -3 20 4 -5 6 -23 14 -40 18
-21 4 -27 3 -20 -4z"/>
</g>
</svg>
